<svg version="1.2" xmlns="http://www.w3.org/2000/svg" viewBox="0 0 3000 561" width="3000" height="561">
	<title>Layer 1</title>
	<defs>
		<linearGradient id="g1" x1="3067" y1="126.1" x2="3077.6" y2="1318.8" gradientUnits="userSpaceOnUse">
			<stop offset=".1" stop-color="#8df2ba"/>
			<stop offset=".2" stop-color="#008b8c"/>
		</linearGradient>
		<linearGradient id="g2" x1="3096.6" y1="65.3" x2="3085.9" y2="914.1" gradientUnits="userSpaceOnUse">
			<stop offset=".1" stop-color="#8df2ba"/>
			<stop offset=".4" stop-color="#008b8c"/>
		</linearGradient>
		<linearGradient id="g3" x1="3091.9" y1="107" x2="3091.9" y2="404.8" gradientUnits="userSpaceOnUse">
			<stop offset="0" stop-color="#8df2ba"/>
			<stop offset="1" stop-color="#008b8c"/>
		</linearGradient>
		<linearGradient id="g4" x1="3109.1" y1="-99.8" x2="3106.3" y2="1546.9" gradientUnits="userSpaceOnUse">
			<stop offset=".4" stop-color="#008b8c"/>
			<stop offset="1" stop-color="#8df2ba"/>
		</linearGradient>
	</defs>
	<style>
		.s0 { fill: #8057bf } 
		.s1 { fill: #612ead } 
		.s2 { fill: #4c178d } 
		.s3 { fill: #291546 } 
	</style>
	<g id="Layer 1">
		<g id="&lt;Group&gt;">
			<g id="&lt;Clip Group&gt;">
				<g id="-e-">
					<g id="&lt;Group&gt;">
						<g id="&lt;Group&gt;">
							<path id="&lt;Path&gt;" class="s0" d="m3066.8 357h-3139.1v-224.9c11.5-2 23.3-4.1 34.7-6.1 21.6-3.8 42.2-7.5 58.9-10.6 23.9-4.3 69.9-32.1 69.9-32.1l126.3 9 122.3-55 54.6 32 180.8-69.3 63.7 65 127.3 64 157.6 20.1 38 31.7 42.5-19.1 110.6-5.7 47.5 26 63.2 23.3c0 0 103.1 23.6 116.2 26.4 3 0.6 11.2 1.4 22.2 2.3 37.5 3.1 107.5 7.1 115.3 7.3 6.6 0.2 39.3 8.6 61 14.2 11.2 3 19.5 5.2 19.5 5.2 0 0 33 8.9 68.3 17.8 36.9 9.3 76.3 18.6 82.9 17.6 12.9-1.8 102.1 12.2 102.1 12.2 0 0 50.4-2.9 101.1-4.1l149.8-24.1 91.6-60.9c0 0 59.3-37.9 72.8-33.9 13.5 4 83.6-38 83.6-38l43.1-45c0 0 78.5-43 86.2-45 7.8-2 21.9 12 21.9 12 5.1 18 23.9 33 23.9 33l0.4 12c0 0 13.8 8.5 18.5 21.3 4.7 12.7 80.9 49.7 80.9 49.7 0 0 41.2 25 76.2 45.4 2.8-0.3 5.4-0.8 7.7-1.4 16.2-4.6 48.6-35.4 56.6-40.9 8.1-5.4 24.6-26 24.6-26h79l13.3-9.6 44.9-32.5h13.8l26.9-15.8 44.1-12.9 67.6 18.6 20.4 5.6c0 0 4.1 134.7 4.8 241.2z"/>
							<path id="&lt;Path&gt;" class="s1" d="m3091 357h-2781.4c-38.1-1.3-75.7-2.6-111.2-3.8-79.8-2.6-149.6-4.8-194.2-6.2-29.8-0.9-48.3-1.4-51-1.4-1.2 0-1.3-0.2-0.6-0.5-2.5-2-12.8-10-23.9-19.9v-54.9c10.4-2.4 22.4-5 34.7-7.5 34.2-6.9 70.9-13.4 83.1-16.5 21.5-5.5 88.9-59.9 88.9-59.9l64.8-8.4 75.4 32.9 104.5-28.9 62.6 40.8 52.9 23.5 29.7-19.2 111.5-39.1 48 39.1h57.2l45.1-20.7h75.3c0 0 51.4 14.6 87.2 20.7 0 0 45.2 19.9 46.7 24.5 1.5 4.6 198.5 0 198.5 0h85.8l56.1 19.7 47 21.1 17.3 7.8 48.5-6.8 2.8-1 17.5-6 51.6-21.3c0 0 51.1 6.2 65.8 6.2 14.6 0 18.4 0 18.4 0l23.5-14 9.6-5.7h81.1v-24.5l33.2-20.7 9.1-15.1 90.2-25.2 18.1-15.4 102.7-15.1 56.8 46h40.3l43.9 24.8h126.4l40.6 20.7 37.3 18.4 12.4 6.1h243.7l21.4 16.2h63.2l89.9-16.2 108.4 34.8h105.3l6.7 6 14.3 12.9 20.7 12.4 24.5 23.7 0.3 0.4 61.8 5.4z"/>
							<path id="&lt;Path&gt;" class="s2" d="m3089.9 357h-3098.3q2.2-1.9 4.4-3.8 3.6-3.1 7.2-6.2c15.4-13.1 29.2-24.1 33.3-25.5 10.7-3.5 98.6-24.4 98.6-24.4l14.7-4.7 57-18c9.1 1.8 199.8-1.3 199.8-1.3l80.9 1.3 110.9-39.4 93.9 23.3h118.3l61.7-12.3 69.7 20.6 83.9 17.4 63.3 43.9 94.4-26.9 106.3 46.9 149.8-2.7 111-24.6 161.6 31.7 85.9 3 87.9-32 13.2-22 11.2-16.9c0 0 2.1-0.9 3.7-1.4l23.5 4.3c12.4-3.6 31.3-5 31.3-5l50.5-6c0 0 17.1 0.1 17.9 0 0.5-0.1 11.4 9.2 19.4 16.1 4.8 4.1 8.7 7.4 8.7 7.4q0 0 0 0c0.7 0.1 37 2.9 37 2.9l37.7-7.4 26-2.9 1.4-0.8c0 0 41.3 0.5 44.5 0.8q0.2 0 0.2 0 0 0 0.2 0 0.2 0 0.5-0.1 0 0 0 0c5.4-0.8 53-8.3 53-8.3 0 0 42.3 29.1 43.5 29.5q0 0 0 0 0 0 0.1 0.1 0.1 0 0.1 0c2.7 0.4 31.6 5.5 41 6.3q0.7 0 2.2 0.1 0 0 0 0c18.4 0.7 117.5 0.6 117.5 0.6l557.5 20.8 62 2.4z"/>
							<path id="&lt;Path&gt;" class="s3" d="m3106 182.3v171.7 206.3h-3211.9v-198l6.1-50c0 0 40.4-8.3 45.4-9.7 5.1-1.3 37.4-16.9 46-16.6 8.6 0.3 35.9-5.7 43-7.7 7.1-2 49.5-22 53.5-22 4.1 0 20.6-5 20.6-5 0 0 34.1 40.2 41.1 38.1 7.1-2.1 59.6 2.9 59.6 2.9l30 10.3c0 0 33 7.7 40.4 9.7 7.4 2 56.6 0 56.6 0l40.8 14 107.1 12h46.2 79.5l52.2-16 30.3-4 42.5 6 47.5-4c0 0 13.1-10 25.2-5 12.2 5 36.4 11 36.4 11l38.1 12c0 0 70.7 0 75.5 0 4.7 0 102.7-16 102.7-16l91-6 60.9-21.5c0 0 55.3 1.5 59.3 0 4.1-1.5 36.4 0 36.4 0l71.8-18.5 33.3-2 10.8 19.5 44.5 8.8 40.4 6.1 49.9-6.1c0 0 32.5 19.2 34.9 18.9 2.5-0.2 18.6 10.8 18.6 10.8 0 0 87.6 23 93 24 5.4 1 101.1 0 101.1 0 0 0 50.5-16 55.6-16 5 0 56.6-4 56.6-4l27.3-4 24.2 4 26.6 10c0 0 20.6 0 28.3 0 7.8 0 66.4-7 66.4-7l48.5-1 26.6 8h36.4c0 0 36.8-44.3 38-43.7 1.1 0.7 86-30.3 86-30.3l17.5-21 16.7 6.7 18.3 5.3 12.2 12 31.3 4 33.2 3.7 24.4 19.6 33.6 16.6 28.6 1.1c0 0 35.8 18 39.9 18 4 0 55.6-14.4 55.6-14.4l22.9-21.3h56.6l42.7-11.6 67.8-2.7c0 0 67 13 71.4 10.5 4.4-2.5 69-36.5 69-36.5l40.1-11c0 0 27.7-17.1 36.8-22.5 9.1-5.5 60.6-46.5 60.6-46.5z"/>
						</g>
					</g>
				</g>
			</g>
		</g>
	</g>
</svg>