<svg viewBox="0 0 4000 1000" xmlns="http://www.w3.org/2000/svg">

<g id="stars" fill="rgba(255, 255, 255, 0.6)" style="transform: scale(540%)" data-svg-origin="19.889999389648438 24.270000457763672">
                <path d="M699.71,128.24a1,1,0,1,1-1-1A1,1,0,0,1,699.71,128.24Z"></path>
                <path d="M643.78,37.74a1,1,0,1,1-1-1A1,1,0,0,1,643.78,37.74Z"></path>
                <path d="M666.33,139.16a1.46,1.46,0,1,1-1.46-1.45A1.46,1.46,0,0,1,666.33,139.16Z"></path>
                <circle cx="636.11" cy="77.24" r="1.46"></circle>
                <path d="M714.4,31.27a1.46,1.46,0,1,1-1.46-1.45A1.46,1.46,0,0,1,714.4,31.27Z"></path>
                <path d="M725,27.36a1.46,1.46,0,1,1-1.46-1.46A1.46,1.46,0,0,1,725,27.36Z"></path>
                <path d="M468.41,65.4A1.46,1.46,0,1,1,467,63.94,1.46,1.46,0,0,1,468.41,65.4Z"></path>
                <path d="M710,97.11a1.46,1.46,0,1,1-1.46-1.46A1.45,1.45,0,0,1,710,97.11Z"></path>
                <circle cx="711.49" cy="170.22" r="1.46"></circle>
                <path d="M677.73,260.6a1.46,1.46,0,1,1-1.46-1.45A1.46,1.46,0,0,1,677.73,260.6Z"></path>
                <path d="M731.11,208.78a1.46,1.46,0,1,1-1.46-1.45A1.46,1.46,0,0,1,731.11,208.78Z"></path>
                <path d="M447.4,234.79a1.46,1.46,0,1,1-1.46-1.45A1.46,1.46,0,0,1,447.4,234.79Z"></path>
                <path d="M523.16,200.18a1.46,1.46,0,1,1-1.45-1.46A1.45,1.45,0,0,1,523.16,200.18Z"></path>
                <path d="M624.94,167.77a1.46,1.46,0,1,1-1.45-1.45A1.45,1.45,0,0,1,624.94,167.77Z"></path>
                <path d="M562.88,139.31a1.46,1.46,0,1,1-1.46-1.45A1.46,1.46,0,0,1,562.88,139.31Z"></path>
                <path d="M372,86.87a1.46,1.46,0,1,1-1.45-1.45A1.45,1.45,0,0,1,372,86.87Z"></path>
                <circle cx="473.23" cy="34.67" r="1.46"></circle>
                <path d="M398.74,28.36a1.46,1.46,0,1,1-1.46-1.46A1.46,1.46,0,0,1,398.74,28.36Z"></path>
                <path d="M448.85,192.73a1.46,1.46,0,1,1-1.45-1.46A1.46,1.46,0,0,1,448.85,192.73Z"></path>
                <circle cx="616.73" cy="121.26" r="1.46"></circle>
                <circle cx="559.97" cy="25.73" r="1.46"></circle>
                <circle cx="679.95" cy="161.38" r="1.46"></circle>
                <circle cx="558.51" cy="229.54" r="1.46"></circle>
                <path d="M692.7,250.2a1.46,1.46,0,1,1-1.45-1.46A1.46,1.46,0,0,1,692.7,250.2Z"></path>
                <circle cx="616.73" cy="201.91" r="1.46"></circle>
                <circle cx="544.82" cy="223.87" r="1.46"></circle>
                <path d="M450.53,73.81a1.46,1.46,0,1,1-1.45-1.46A1.45,1.45,0,0,1,450.53,73.81Z"></path>
                <path d="M445.94,201.63a1.46,1.46,0,1,1-1.46-1.45A1.46,1.46,0,0,1,445.94,201.63Z"></path>
                <path d="M186.43,237.31a1,1,0,1,1-1-1A1,1,0,0,1,186.43,237.31Z"></path>
                <path d="M291.32,199.17a1,1,0,1,1-1-1A1,1,0,0,1,291.32,199.17Z"></path>
                <path d="M153.05,248.24a1.46,1.46,0,1,1-1.46-1.46A1.45,1.45,0,0,1,153.05,248.24Z"></path>
                <path d="M114,221.87a1.46,1.46,0,1,1-1.45-1.46A1.45,1.45,0,0,1,114,221.87Z"></path>
                <path d="M154.88,151.93a1.46,1.46,0,1,1-1.45-1.45A1.45,1.45,0,0,1,154.88,151.93Z"></path>
                <path d="M199.67,279.29a1.46,1.46,0,1,1-1.46-1.46A1.47,1.47,0,0,1,199.67,279.29Z"></path>
                <path d="M54.91,249.69a1.46,1.46,0,1,1-1.45-1.45A1.45,1.45,0,0,1,54.91,249.69Z"></path>
                <circle cx="166.68" cy="270.45" r="1.46"></circle>
                <path d="M166.68,191.27a1.46,1.46,0,1,1-1.46-1.45A1.46,1.46,0,0,1,166.68,191.27Z"></path>
                <path d="M185.88,123.67a1.46,1.46,0,1,1-1.45-1.45A1.45,1.45,0,0,1,185.88,123.67Z"></path>
                <circle cx="671.95" cy="113.82" r="1.46"></circle>
                <path d="M631.32,65.4a1.46,1.46,0,1,1-1.46-1.46A1.47,1.47,0,0,1,631.32,65.4Z"></path>
                <path d="M30,149a1.46,1.46,0,1,1-1.46-1.46A1.46,1.46,0,0,1,30,149Z"></path>
                <circle cx="104.05" cy="109.88" r="1.46"></circle>
                <path d="M108.42,183a1.46,1.46,0,1,1-1.46-1.45A1.46,1.46,0,0,1,108.42,183Z"></path>
                <path d="M76.88,174.14a1.46,1.46,0,1,1-1.45-1.45A1.45,1.45,0,0,1,76.88,174.14Z"></path>
                <path d="M76.88,78.7a1.46,1.46,0,1,1-1.45-1.46A1.45,1.45,0,0,1,76.88,78.7Z"></path>
                <path d="M239,207.33a1.46,1.46,0,1,1-1.45-1.46A1.45,1.45,0,0,1,239,207.33Z"></path>
                <path d="M598,191.27a1.46,1.46,0,1,1-1.46-1.45A1.46,1.46,0,0,1,598,191.27Z"></path>
                <path d="M509.84,86.87a1.46,1.46,0,1,1-1.46-1.45A1.46,1.46,0,0,1,509.84,86.87Z"></path>
                <path d="M285.57,238.38a1.46,1.46,0,1,1-1.46-1.46A1.46,1.46,0,0,1,285.57,238.38Z"></path>
                <circle cx="252.58" cy="229.54" r="1.46"></circle>
                <path d="M222.07,80.16a1.46,1.46,0,1,1-1.45-1.46A1.45,1.45,0,0,1,222.07,80.16Z"></path>
                <path d="M251.13,29.82a1.46,1.46,0,1,1-1.46-1.46A1.46,1.46,0,0,1,251.13,29.82Z"></path>
                <path d="M190.54,71.32a1.46,1.46,0,1,1-1.45-1.46A1.45,1.45,0,0,1,190.54,71.32Z"></path>
                <circle cx="351.16" cy="104.5" r="1.46"></circle>
                <path d="M294.24,80.16a1.46,1.46,0,1,1-1.46-1.46A1.46,1.46,0,0,1,294.24,80.16Z"></path>
                <path d="M367.7,126.71a1.46,1.46,0,1,1-1.46-1.45A1.46,1.46,0,0,1,367.7,126.71Z"></path>
                <path d="M358.52,77.06a1.46,1.46,0,1,1-1.46-1.46A1.47,1.47,0,0,1,358.52,77.06Z"></path>
                <path d="M49,126.59a1.46,1.46,0,1,1-1.45-1.46A1.45,1.45,0,0,1,49,126.59Z"></path>
                <path d="M22.81,37.74a1.46,1.46,0,1,1-1.46-1.46A1.46,1.46,0,0,1,22.81,37.74Z"></path>
                <path d="M150.15,74.81a1,1,0,1,1-1-1A1,1,0,0,1,150.15,74.81Z"></path>
                <path d="M89.47,27.36a1,1,0,1,1-1-1A1,1,0,0,1,89.47,27.36Z"></path>
                <circle cx="32.33" cy="82.62" r="1"></circle>
                <path d="M100.29,143.93a1,1,0,0,1-2,0,1,1,0,0,1,2,0Z"></path>
                <circle cx="48.8" cy="202.91" r="1"></circle>
                <path d="M225.77,129.05a1,1,0,1,1-1-1A1,1,0,0,1,225.77,129.05Z"></path>
                <path d="M283.66,83.62a1,1,0,1,1-1-1A1,1,0,0,1,283.66,83.62Z"></path>
                <circle cx="474.23" cy="222.87" r="1"></circle>
                <circle cx="663.41" cy="189.82" r="1"></circle>
                <path d="M599.68,251.66a1,1,0,1,1-1-1A1,1,0,0,1,599.68,251.66Z"></path>
                <circle cx="349.25" cy="41.39" r="1"></circle>
                <circle cx="557.51" cy="100.02" r="1"></circle>
                <path d="M551.87,115.27a1,1,0,1,1-1-1A1,1,0,0,1,551.87,115.27Z"></path>
                <path d="M160.47,43.68A1.46,1.46,0,1,1,159,42.22,1.45,1.45,0,0,1,160.47,43.68Z"></path>
                <circle cx="122.39" cy="60.39" r="1.46"></circle>
            </g>

</svg>
